<?xml version="1.0" ?><svg enable-background="new 0 0 64 64" height="64px" version="1.1" viewBox="0 0 64 64" width="64px" xml:space="preserve" xmlns="http://www.w3.org/2000/svg" xmlns:xlink="http://www.w3.org/1999/xlink"><g id="Layer_1"><g><circle cx="32" cy="32" fill="#77B3D4" r="32"/></g><g opacity="0.2"><path d="M48,50c0,2.209-1.791,4-4,4H20c-2.209,0-4-1.791-4-4V18c0-2.209,1.791-4,4-4h24c2.209,0,4,1.791,4,4V50z" fill="#231F20"/></g><g><path d="M48,48c0,2.209-1.791,4-4,4H20c-2.209,0-4-1.791-4-4V16c0-2.209,1.791-4,4-4h24c2.209,0,4,1.791,4,4V48z" fill="#4F5D73"/></g><g opacity="0.2"><g><path d="M35,14v7.846c0,0.264,0.163,0.503,0.411,0.604c0.083,0.033,0.169,0.05,0.255,0.05     c0.173,0,0.344-0.067,0.471-0.192L39,19.501l2.862,2.807c0.127,0.125,0.298,0.192,0.471,0.192c0.086,0,0.173-0.016,0.255-0.05     C42.837,22.349,43,22.11,43,21.846V14H35z" fill="#231F20"/></g></g><g><g><path d="M35,12v7.846c0,0.264,0.163,0.503,0.411,0.604c0.083,0.033,0.169,0.05,0.255,0.05     c0.173,0,0.344-0.067,0.471-0.192L39,17.501l2.862,2.807c0.127,0.125,0.298,0.192,0.471,0.192c0.086,0,0.173-0.016,0.255-0.05     C42.837,20.349,43,20.11,43,19.846V12H35z" fill="#C75C5C"/></g></g><g><rect fill="#E0E0D1" height="40" width="3" x="20" y="12"/></g></g><g id="Layer_2"/></svg>